<?xml version="1.0" encoding="UTF-8" standalone="no"?>
<svg
   xmlns:dc="http://purl.org/dc/elements/1.1/"
   xmlns:cc="http://creativecommons.org/ns#"
   xmlns:rdf="http://www.w3.org/1999/02/22-rdf-syntax-ns#"
   xmlns:svg="http://www.w3.org/2000/svg"
   xmlns="http://www.w3.org/2000/svg"
   xmlns:sodipodi="http://sodipodi.sourceforge.net/DTD/sodipodi-0.dtd"
   xmlns:inkscape="http://www.inkscape.org/namespaces/inkscape"
   width="96mm"
   height="96mm"
   viewBox="0 0 96 96"
   version="1.1"
   id="svg8"
   inkscape:version="1.0 (4035a4fb49, 2020-05-01)"
   sodipodi:docname="рисунок.svg">
  <defs
     id="defs2" />
  <sodipodi:namedview
     id="base"
     pagecolor="#ffffff"
     bordercolor="#666666"
     borderopacity="1.0"
     inkscape:pageopacity="0.0"
     inkscape:pageshadow="2"
     inkscape:zoom="1.4142136"
     inkscape:cx="130.90298"
     inkscape:cy="219.05933"
     inkscape:document-units="mm"
     inkscape:current-layer="layer1"
     inkscape:document-rotation="0"
     showgrid="false"
     inkscape:object-paths="false"
     inkscape:window-width="1424"
     inkscape:window-height="860"
     inkscape:window-x="0"
     inkscape:window-y="0"
     inkscape:window-maximized="0" />
  <metadata
     id="metadata5">
    <rdf:RDF>
      <cc:Work
         rdf:about="">
        <dc:format>image/svg+xml</dc:format>
        <dc:type
           rdf:resource="http://purl.org/dc/dcmitype/StillImage" />
        <dc:title />
      </cc:Work>
    </rdf:RDF>
  </metadata>
  <g
     inkscape:label="Слой 1"
     inkscape:groupmode="layer"
     id="layer1">
    <g
       transform="matrix(1.7711827,0,0,1.7465401,-38.962251,-17.488622)"
       id="g841">
      <path
         d="m 33.027373,31.368079 c -1.680066,0 -3.033271,1.19406 -3.033271,2.676539 V 62.30257 c 0,1.48248 1.353205,2.67654 3.033271,2.67654 h 32.024206 c 1.68007,0 3.033272,-1.19406 3.033272,-2.67654 V 34.044618 c 0,-1.482479 -1.353202,-2.676539 -3.033272,-2.676539 z m 0.793256,2.240581 h 30.437696 c 0.713066,0 1.286662,0.506718 1.286662,1.135923 v 26.858025 c 0,0.629204 -0.573596,1.135341 -1.286662,1.135341 H 33.820629 c -0.713065,0 -1.287318,-0.506137 -1.287318,-1.135341 V 34.744583 c 0,-0.629205 0.574253,-1.135923 1.287318,-1.135923 z"
         style="fill:#f0f9f5;fill-opacity:1;stroke:none;stroke-width:3.578;stroke-linejoin:round;stroke-miterlimit:4;stroke-dasharray:none;stroke-opacity:1"
         id="rect883" />
      <path
         d="m 40.51863,39.770824 c -0.555188,0 -1.001915,0.375146 -1.001915,0.840657 0,0.03284 0.0075,0.06372 0.01181,0.09552 -0.0038,0.03448 -0.01181,0.06793 -0.01181,0.103353 V 55.53662 c 0,0.576064 0.525242,1.039532 1.178087,1.039532 h 16.689062 c 0.03946,0 0.0767,-0.0071 0.115147,-0.01042 0.03686,0.004 0.07317,0.01042 0.111211,0.01042 0.527555,0 0.951718,-0.394188 0.951718,-0.88408 V 55.536624 54.89571 40.654906 c 0,-0.0077 -0.0018,-0.01479 -0.0019,-0.02259 2.09e-4,-0.0071 0.0019,-0.01361 0.0019,-0.02084 0,-0.221651 -0.102603,-0.421593 -0.268687,-0.571438 -0.0047,-0.0045 -0.0089,-0.0094 -0.01371,-0.01395 -0.01244,-0.01053 -0.02642,-0.01946 -0.03937,-0.02952 -0.16805,-0.138752 -0.386288,-0.225803 -0.629882,-0.225803 -0.008,0 -0.01562,0.0024 -0.02362,0.0027 -0.0091,-2.01e-4 -0.01752,-0.0027 -0.02656,-0.0027 H 41.421204 40.694866 Z m 0.902511,1.680447 h 7.618683 v 5.926285 0.274428 7.243722 h -6.095145 c -0.843772,0 -1.523538,-0.598951 -1.523538,-1.343489 z m 10.068354,0 h 5.168029 v 5.041337 h -5.168029 z m 0,7.085663 h 5.168029 v 6.358772 h -5.168029 z"
         style="fill:#f0f9f5;fill-opacity:1;stroke:none;stroke-width:3.58239;stroke-linejoin:round;stroke-miterlimit:4;stroke-dasharray:none;stroke-opacity:1"
         id="rect967" />
      <path
         d="m 49.933036,10.342111 c -0.462465,-0.4384204 -1.206789,-0.4384204 -1.669254,-2e-6 l -0.30102,0.285368 -25.618041,24.28598 c -0.462464,0.438417 -0.462464,1.14404 1e-6,1.582457 l 0.301019,0.285368 c 0.462465,0.438419 1.207198,0.438804 1.669661,3.87e-4 L 49.098408,13.287304 73.881416,36.78167 c 0.462463,0.438417 1.207197,0.438032 1.669662,-3.87e-4 l 0.301018,-0.285368 c 0.462467,-0.438417 0.462465,-1.144039 2e-6,-1.582456 L 50.234055,10.627477 Z"
         style="fill:#f0f9f5;fill-opacity:1;stroke:none;stroke-width:2.4695;stroke-linejoin:round;stroke-miterlimit:4;stroke-dasharray:none;stroke-opacity:1"
         id="rect996" />
      <path
         d="m 48.81735,20.16428 a 4.8710805,4.2982099 0 0 0 -4.856646,4.29821 4.8710805,4.2982099 0 0 0 4.871081,4.298209 4.8710805,4.2982099 0 0 0 4.871081,-4.298209 4.8710805,4.2982099 0 0 0 -4.871081,-4.29821 4.8710805,4.2982099 0 0 0 -0.01445,0 z m 0.01115,1.630355 a 3.0234296,2.6678547 0 0 1 0.0034,0 3.0234296,2.6678547 0 0 1 3.02343,2.667855 3.0234296,2.6678547 0 0 1 -3.02343,2.667855 3.0234296,2.6678547 0 0 1 -3.023429,-2.667855 3.0234296,2.6678547 0 0 1 3.020147,-2.667855 z"
         style="fill:#f0f9f5;fill-opacity:1;stroke:none;stroke-width:2.38537;stroke-linejoin:round;stroke-miterlimit:4;stroke-dasharray:none;stroke-opacity:1"
         id="path1044" />
    </g>
    <g
       style="font-style:normal;font-variant:normal;font-weight:normal;font-stretch:normal;font-size:10.5833px;line-height:1.25;font-family:Nunito;-inkscape-font-specification:'Nunito, Normal';font-variant-ligatures:normal;font-variant-caps:normal;font-variant-numeric:normal;font-variant-east-asian:normal;fill:#3a9b71;fill-opacity:1;stroke:none;stroke-width:0.264583"
       id="text1069"
       aria-label="Наш Дом"
       transform="matrix(1.1336244,0,0,1.1203589,-2.2064628,1.3119964)" />
  </g>
</svg>
